<svg width="19" height="16" viewBox="0 0 19 16" fill="none" xmlns="http://www.w3.org/2000/svg">
  <path
    d="M18 15H3.2724C2.7856 15 2.36953 14.6495 2.28691 14.1697L1.20146 7.8674C1.09621 7.25627 1.56682 6.69767 2.18695 6.69767H2.42991M18 15V5.41861C18 4.86632 17.5523 4.4186 17 4.4186H15.2991M18 15L16.7131 7.52794C16.6305 7.04821 16.2144 6.69767 15.7276 6.69767H15.2991M5.76636 4.4186V4.4186C5.76636 3.96907 5.40194 3.60465 4.9524 3.60465H4.42567C4.2009 3.60465 4.01869 3.78686 4.01869 4.01163V4.01163C4.01869 4.23639 3.83648 4.4186 3.61171 4.4186H3.2243C2.78557 4.4186 2.42991 4.77427 2.42991 5.213V6.69767M2.42991 6.69767H5.76636M5.76636 6.69767V2C5.76636 1.44771 6.21407 1 6.76636 1H14.2991C14.8513 1 15.2991 1.44772 15.2991 2V6.69767M5.76636 6.69767H15.2991M7.03738 3.27907H10.5327H14.028M7.03738 5.06977H10.5327M11.8037 5.06977H14.028"
    stroke="black" stroke-opacity="0.87" stroke-linecap="round" stroke-linejoin="round" />
</svg>